<svg width="321" height="321" viewBox="0 0 321 321" fill="none" xmlns="http://www.w3.org/2000/svg">
<path d="M320.754 160.383C320.707 202.803 303.835 243.473 273.84 273.468C243.844 303.464 203.174 320.336 160.754 320.383H26.3539C19.5644 320.383 13.0529 317.686 8.25197 312.885C3.45104 308.084 0.753906 301.572 0.753906 294.783V160.383C0.753907 117.948 17.611 77.2515 47.6168 47.2457C77.6226 17.2399 118.319 0.382812 160.754 0.382812C203.189 0.382812 243.885 17.2399 273.891 47.2457C303.897 77.2515 320.754 117.948 320.754 160.383Z" fill="#1963AD"/>
<path d="M57.2238 94.5005C68.9193 94.5005 78.4003 103.982 78.4003 115.677V139.206C78.4003 150.902 68.9193 160.383 57.2238 160.383C45.5284 160.383 36.0473 150.902 36.0473 139.206L36.0473 115.677C36.0473 103.982 45.5284 94.5005 57.2238 94.5005Z" fill="white"/>
<path d="M92.5179 129.795C92.5179 118.099 101.999 108.618 113.694 108.618H137.224C148.919 108.618 158.4 118.099 158.4 129.795C158.4 141.49 148.919 150.971 137.224 150.971H113.694C101.999 150.971 92.5179 141.49 92.5179 129.795Z" fill="white"/>
<path d="M163.106 129.795C163.106 118.099 172.587 108.618 184.283 108.618H207.812C219.507 108.618 228.989 118.099 228.989 129.795C228.989 141.49 219.507 150.971 207.812 150.971H184.283C172.587 150.971 163.106 141.49 163.106 129.795Z" fill="white"/>
<path d="M268.989 94.5005C280.684 94.5005 290.165 103.982 290.165 115.677V139.206C290.165 150.902 280.684 160.383 268.989 160.383C257.293 160.383 247.812 150.902 247.812 139.206V115.677C247.812 103.982 257.293 94.5005 268.989 94.5005Z" fill="white"/>
<path d="M21.9297 195.677C21.9297 183.982 31.4107 174.5 43.1062 174.5H66.6355C78.331 174.5 87.812 183.982 87.812 195.677C87.812 207.372 78.331 216.853 66.6356 216.853H43.1062C31.4107 216.853 21.9297 207.372 21.9297 195.677Z" fill="white"/>
<path d="M92.5179 195.677C92.5179 183.982 101.999 174.5 113.694 174.5H137.224C148.919 174.5 158.4 183.982 158.4 195.677C158.4 207.372 148.919 216.853 137.224 216.853H113.694C101.999 216.853 92.5179 207.372 92.5179 195.677Z" fill="white"/>
<path d="M198.4 160.383C210.096 160.383 219.577 169.864 219.577 181.559V205.089C219.577 216.784 210.096 226.265 198.4 226.265C186.705 226.265 177.224 216.784 177.224 205.089V181.559C177.224 169.864 186.705 160.383 198.4 160.383Z" fill="white"/>
<path d="M233.694 195.677C233.694 183.982 243.175 174.5 254.871 174.5H278.4C290.096 174.5 299.577 183.982 299.577 195.677C299.577 207.372 290.096 216.853 278.4 216.853H254.871C243.175 216.853 233.694 207.372 233.694 195.677Z" fill="white"/>
</svg>
