<svg width="273" height="48" viewBox="0 0 273 48" fill="none" xmlns="http://www.w3.org/2000/svg">
<path d="M60.0992 10.8035C60.0992 8.90214 60.5745 7.23081 61.5252 5.78948C62.4758 4.34814 63.8098 3.22881 65.5272 2.43147C67.2752 1.63414 69.2838 1.23547 71.5532 1.23547C73.6692 1.23547 75.5092 1.61881 77.0732 2.38548C78.6678 3.12147 79.9098 4.17948 80.7992 5.55948C81.7192 6.93948 82.2405 8.59548 82.3632 10.5275H77.8092C77.6865 8.87148 77.0732 7.58348 75.9692 6.66348C74.8652 5.74348 73.3778 5.28348 71.5072 5.28348C69.4218 5.28348 67.7505 5.77414 66.4932 6.75547C65.2358 7.70614 64.6072 9.00947 64.6072 10.6655C64.6072 12.0148 64.9905 13.1035 65.7572 13.9315C66.5238 14.7288 67.6892 15.3115 69.2532 15.6795L74.7272 16.9675C77.4565 17.5808 79.4958 18.6388 80.8452 20.1415C82.2252 21.6135 82.9152 23.5148 82.9152 25.8455C82.9152 27.8388 82.4245 29.5715 81.4432 31.0435C80.4925 32.5155 79.1278 33.6501 77.3492 34.4475C75.6012 35.2448 73.5465 35.6435 71.1852 35.6435C68.9465 35.6435 66.9685 35.2755 65.2512 34.5395C63.5645 33.7728 62.2305 32.6995 61.2492 31.3195C60.2985 29.9088 59.7618 28.2681 59.6392 26.3975H64.2392C64.2698 27.9921 64.9138 29.2648 66.1712 30.2155C67.4285 31.1355 69.0998 31.5955 71.1852 31.5955C73.3932 31.5955 75.1412 31.1048 76.4292 30.1235C77.7478 29.1421 78.4072 27.8388 78.4072 26.2135C78.4072 24.8948 78.0392 23.8215 77.3032 22.9935C76.5672 22.1655 75.4018 21.5675 73.8072 21.1995L68.3332 19.9575C65.6345 19.3441 63.5798 18.2708 62.1692 16.7375C60.7892 15.1735 60.0992 13.1955 60.0992 10.8035ZM92.674 35.0915L85.314 12.5975H89.776L93.502 24.2815C93.778 25.1095 94.0233 25.9681 94.238 26.8575C94.4527 27.7161 94.6673 28.6361 94.882 29.6175C95.0047 28.9428 95.1427 28.2988 95.296 27.6855C95.48 27.0415 95.664 26.4435 95.848 25.8915C96.032 25.3088 96.2007 24.7721 96.354 24.2815L100.126 12.5975H104.542L108.268 24.2815C108.391 24.5575 108.498 24.9255 108.59 25.3855C108.713 25.8148 108.851 26.2748 109.004 26.7655C109.157 27.2561 109.295 27.7468 109.418 28.2375C109.541 28.7281 109.648 29.1881 109.74 29.6175C109.863 29.0041 109.985 28.4215 110.108 27.8695C110.261 27.2868 110.415 26.7195 110.568 26.1675C110.752 25.5848 110.951 24.9561 111.166 24.2815L114.938 12.5975H119.446L111.764 35.0915H107.67L103.76 23.0395C103.392 21.9048 103.085 20.9081 102.84 20.0495C102.625 19.1601 102.457 18.4088 102.334 17.7955C102.211 18.3475 102.027 19.0375 101.782 19.8655C101.567 20.6628 101.261 21.7361 100.862 23.0855L96.952 35.0915H92.674ZM123.153 35.0915V12.5975H127.477V35.0915H123.153ZM125.269 7.26148C124.502 7.26148 123.827 6.98548 123.245 6.43348C122.693 5.85081 122.417 5.17614 122.417 4.40947C122.417 3.61214 122.693 2.93748 123.245 2.38548C123.827 1.83348 124.502 1.55747 125.269 1.55747C126.066 1.55747 126.741 1.83348 127.293 2.38548C127.845 2.93748 128.121 3.61214 128.121 4.40947C128.121 5.17614 127.845 5.85081 127.293 6.43348C126.741 6.98548 126.066 7.26148 125.269 7.26148ZM131.362 12.5975H145.484V16.2315H131.362V12.5975ZM144.242 1.41947V5.14548C143.966 5.14548 143.659 5.14548 143.322 5.14548C143.015 5.14548 142.678 5.14548 142.31 5.14548C140.991 5.14548 140.102 5.48281 139.642 6.15748C139.213 6.83214 138.998 7.78281 138.998 9.00947V35.0915H134.674V9.00947C134.674 7.16948 134.981 5.68214 135.594 4.54747C136.207 3.38214 137.035 2.53881 138.078 2.01747C139.121 1.49614 140.286 1.23547 141.574 1.23547C142.003 1.23547 142.448 1.25081 142.908 1.28148C143.368 1.31214 143.813 1.35814 144.242 1.41947ZM144.932 12.5975H158.272V16.2315H144.932V12.5975ZM153.856 35.0915H149.532V5.55948H153.856V35.0915ZM163.939 12.5975L171.851 34.4935L169.183 38.1735L159.385 12.5975H163.939ZM159.983 45.1655V41.6235H162.881C163.586 41.6235 164.23 41.5468 164.813 41.3935C165.395 41.2708 165.932 40.9795 166.423 40.5195C166.913 40.0901 167.327 39.4001 167.665 38.4495L177.141 12.5975H181.603L170.977 40.1515C170.21 42.0835 169.244 43.4788 168.079 44.3375C166.913 45.1961 165.472 45.6255 163.755 45.6255C163.049 45.6255 162.39 45.5795 161.777 45.4875C161.163 45.4261 160.565 45.3188 159.983 45.1655ZM190.299 1.83347V35.0915H185.791V1.83347H190.299ZM198.855 20.4175H189.057V16.5075H198.487C200.358 16.5075 201.799 16.0321 202.811 15.0815C203.823 14.1308 204.329 12.7815 204.329 11.0335C204.329 9.37748 203.792 8.10481 202.719 7.21548C201.676 6.29548 200.174 5.83547 198.211 5.83547H188.275V1.83347H198.487C201.738 1.83347 204.283 2.61547 206.123 4.17947C207.994 5.74347 208.929 7.89014 208.929 10.6195C208.929 12.6741 208.423 14.3915 207.411 15.7715C206.43 17.1208 204.973 18.1021 203.041 18.7155V18.1175C205.188 18.6388 206.798 19.5895 207.871 20.9695C208.975 22.3188 209.527 24.0668 209.527 26.2135C209.527 28.0535 209.098 29.6481 208.239 30.9975C207.411 32.3161 206.2 33.3281 204.605 34.0335C203.01 34.7388 201.124 35.0915 198.947 35.0915H188.275V31.0895H198.855C200.787 31.0895 202.274 30.6141 203.317 29.6635C204.36 28.7128 204.881 27.3788 204.881 25.6615C204.881 24.0055 204.344 22.7175 203.271 21.7975C202.228 20.8775 200.756 20.4175 198.855 20.4175ZM215.779 12.5975L223.691 34.4935L221.023 38.1735L211.225 12.5975H215.779ZM211.823 45.1655V41.6235H214.721C215.426 41.6235 216.07 41.5468 216.653 41.3935C217.235 41.2708 217.772 40.9795 218.263 40.5195C218.753 40.0901 219.167 39.4001 219.505 38.4495L228.981 12.5975H233.443L222.817 40.1515C222.05 42.0835 221.084 43.4788 219.919 44.3375C218.753 45.1961 217.312 45.6255 215.595 45.6255C214.889 45.6255 214.23 45.5795 213.617 45.4875C213.003 45.4261 212.405 45.3188 211.823 45.1655ZM234.503 12.5975H247.567V16.2315H234.503V12.5975ZM247.383 31.3195L247.935 34.9075C246.769 35.3675 245.527 35.5975 244.209 35.5975C242.89 35.5975 241.771 35.3521 240.851 34.8615C239.931 34.3401 239.225 33.5735 238.735 32.5615C238.244 31.5495 237.999 30.2921 237.999 28.7895V5.55948H242.323V28.1915C242.323 29.4795 242.583 30.3995 243.105 30.9515C243.657 31.4728 244.362 31.7335 245.221 31.7335C245.895 31.7335 246.616 31.5955 247.383 31.3195ZM261.874 35.6435C259.697 35.6435 257.765 35.1528 256.078 34.1715C254.392 33.1595 253.073 31.7795 252.122 30.0315C251.172 28.2528 250.696 26.1981 250.696 23.8675C250.696 21.5061 251.156 19.4361 252.076 17.6575C253.027 15.8788 254.315 14.4835 255.94 13.4715C257.596 12.4595 259.513 11.9535 261.69 11.9535C263.837 11.9535 265.692 12.4135 267.256 13.3335C268.851 14.2535 270.078 15.5415 270.936 17.1975C271.826 18.8535 272.27 20.8008 272.27 23.0395V24.6495L252.996 24.6955L253.088 21.7975H267.946C267.946 19.9268 267.379 18.4241 266.244 17.2895C265.11 16.1548 263.592 15.5875 261.69 15.5875C260.249 15.5875 259.007 15.9095 257.964 16.5535C256.952 17.1668 256.17 18.0868 255.618 19.3135C255.097 20.5095 254.836 21.9508 254.836 23.6375C254.836 26.3361 255.45 28.4215 256.676 29.8935C257.903 31.3348 259.666 32.0555 261.966 32.0555C263.653 32.0555 265.033 31.7181 266.106 31.0435C267.18 30.3688 267.9 29.3875 268.268 28.0995H272.316C271.764 30.4915 270.584 32.3468 268.774 33.6655C266.965 34.9841 264.665 35.6435 261.874 35.6435Z" fill="#1963AD"/>
<path d="M60.0992 10.8035C60.0992 8.90214 60.5745 7.23081 61.5252 5.78948C62.4758 4.34814 63.8098 3.22881 65.5272 2.43147C67.2752 1.63414 69.2838 1.23547 71.5532 1.23547C73.6692 1.23547 75.5092 1.61881 77.0732 2.38548C78.6678 3.12147 79.9098 4.17948 80.7992 5.55948C81.7192 6.93948 82.2405 8.59548 82.3632 10.5275H77.8092C77.6865 8.87148 77.0732 7.58348 75.9692 6.66348C74.8652 5.74348 73.3778 5.28348 71.5072 5.28348C69.4218 5.28348 67.7505 5.77414 66.4932 6.75547C65.2358 7.70614 64.6072 9.00947 64.6072 10.6655C64.6072 12.0148 64.9905 13.1035 65.7572 13.9315C66.5238 14.7288 67.6892 15.3115 69.2532 15.6795L74.7272 16.9675C77.4565 17.5808 79.4958 18.6388 80.8452 20.1415C82.2252 21.6135 82.9152 23.5148 82.9152 25.8455C82.9152 27.8388 82.4245 29.5715 81.4432 31.0435C80.4925 32.5155 79.1278 33.6501 77.3492 34.4475C75.6012 35.2448 73.5465 35.6435 71.1852 35.6435C68.9465 35.6435 66.9685 35.2755 65.2512 34.5395C63.5645 33.7728 62.2305 32.6995 61.2492 31.3195C60.2985 29.9088 59.7618 28.2681 59.6392 26.3975H64.2392C64.2698 27.9921 64.9138 29.2648 66.1712 30.2155C67.4285 31.1355 69.0998 31.5955 71.1852 31.5955C73.3932 31.5955 75.1412 31.1048 76.4292 30.1235C77.7478 29.1421 78.4072 27.8388 78.4072 26.2135C78.4072 24.8948 78.0392 23.8215 77.3032 22.9935C76.5672 22.1655 75.4018 21.5675 73.8072 21.1995L68.3332 19.9575C65.6345 19.3441 63.5798 18.2708 62.1692 16.7375C60.7892 15.1735 60.0992 13.1955 60.0992 10.8035ZM92.674 35.0915L85.314 12.5975H89.776L93.502 24.2815C93.778 25.1095 94.0233 25.9681 94.238 26.8575C94.4527 27.7161 94.6673 28.6361 94.882 29.6175C95.0047 28.9428 95.1427 28.2988 95.296 27.6855C95.48 27.0415 95.664 26.4435 95.848 25.8915C96.032 25.3088 96.2007 24.7721 96.354 24.2815L100.126 12.5975H104.542L108.268 24.2815C108.391 24.5575 108.498 24.9255 108.59 25.3855C108.713 25.8148 108.851 26.2748 109.004 26.7655C109.157 27.2561 109.295 27.7468 109.418 28.2375C109.541 28.7281 109.648 29.1881 109.74 29.6175C109.863 29.0041 109.985 28.4215 110.108 27.8695C110.261 27.2868 110.415 26.7195 110.568 26.1675C110.752 25.5848 110.951 24.9561 111.166 24.2815L114.938 12.5975H119.446L111.764 35.0915H107.67L103.76 23.0395C103.392 21.9048 103.085 20.9081 102.84 20.0495C102.625 19.1601 102.457 18.4088 102.334 17.7955C102.211 18.3475 102.027 19.0375 101.782 19.8655C101.567 20.6628 101.261 21.7361 100.862 23.0855L96.952 35.0915H92.674ZM123.153 35.0915V12.5975H127.477V35.0915H123.153ZM125.269 7.26148C124.502 7.26148 123.827 6.98548 123.245 6.43348C122.693 5.85081 122.417 5.17614 122.417 4.40947C122.417 3.61214 122.693 2.93748 123.245 2.38548C123.827 1.83348 124.502 1.55747 125.269 1.55747C126.066 1.55747 126.741 1.83348 127.293 2.38548C127.845 2.93748 128.121 3.61214 128.121 4.40947C128.121 5.17614 127.845 5.85081 127.293 6.43348C126.741 6.98548 126.066 7.26148 125.269 7.26148ZM131.362 12.5975H145.484V16.2315H131.362V12.5975ZM144.242 1.41947V5.14548C143.966 5.14548 143.659 5.14548 143.322 5.14548C143.015 5.14548 142.678 5.14548 142.31 5.14548C140.991 5.14548 140.102 5.48281 139.642 6.15748C139.213 6.83214 138.998 7.78281 138.998 9.00947V35.0915H134.674V9.00947C134.674 7.16948 134.981 5.68214 135.594 4.54747C136.207 3.38214 137.035 2.53881 138.078 2.01747C139.121 1.49614 140.286 1.23547 141.574 1.23547C142.003 1.23547 142.448 1.25081 142.908 1.28148C143.368 1.31214 143.813 1.35814 144.242 1.41947ZM144.932 12.5975H158.272V16.2315H144.932V12.5975ZM153.856 35.0915H149.532V5.55948H153.856V35.0915ZM163.939 12.5975L171.851 34.4935L169.183 38.1735L159.385 12.5975H163.939ZM159.983 45.1655V41.6235H162.881C163.586 41.6235 164.23 41.5468 164.813 41.3935C165.395 41.2708 165.932 40.9795 166.423 40.5195C166.913 40.0901 167.327 39.4001 167.665 38.4495L177.141 12.5975H181.603L170.977 40.1515C170.21 42.0835 169.244 43.4788 168.079 44.3375C166.913 45.1961 165.472 45.6255 163.755 45.6255C163.049 45.6255 162.39 45.5795 161.777 45.4875C161.163 45.4261 160.565 45.3188 159.983 45.1655ZM190.299 1.83347V35.0915H185.791V1.83347H190.299ZM198.855 20.4175H189.057V16.5075H198.487C200.358 16.5075 201.799 16.0321 202.811 15.0815C203.823 14.1308 204.329 12.7815 204.329 11.0335C204.329 9.37748 203.792 8.10481 202.719 7.21548C201.676 6.29548 200.174 5.83547 198.211 5.83547H188.275V1.83347H198.487C201.738 1.83347 204.283 2.61547 206.123 4.17947C207.994 5.74347 208.929 7.89014 208.929 10.6195C208.929 12.6741 208.423 14.3915 207.411 15.7715C206.43 17.1208 204.973 18.1021 203.041 18.7155V18.1175C205.188 18.6388 206.798 19.5895 207.871 20.9695C208.975 22.3188 209.527 24.0668 209.527 26.2135C209.527 28.0535 209.098 29.6481 208.239 30.9975C207.411 32.3161 206.2 33.3281 204.605 34.0335C203.01 34.7388 201.124 35.0915 198.947 35.0915H188.275V31.0895H198.855C200.787 31.0895 202.274 30.6141 203.317 29.6635C204.36 28.7128 204.881 27.3788 204.881 25.6615C204.881 24.0055 204.344 22.7175 203.271 21.7975C202.228 20.8775 200.756 20.4175 198.855 20.4175ZM215.779 12.5975L223.691 34.4935L221.023 38.1735L211.225 12.5975H215.779ZM211.823 45.1655V41.6235H214.721C215.426 41.6235 216.07 41.5468 216.653 41.3935C217.235 41.2708 217.772 40.9795 218.263 40.5195C218.753 40.0901 219.167 39.4001 219.505 38.4495L228.981 12.5975H233.443L222.817 40.1515C222.05 42.0835 221.084 43.4788 219.919 44.3375C218.753 45.1961 217.312 45.6255 215.595 45.6255C214.889 45.6255 214.23 45.5795 213.617 45.4875C213.003 45.4261 212.405 45.3188 211.823 45.1655ZM234.503 12.5975H247.567V16.2315H234.503V12.5975ZM247.383 31.3195L247.935 34.9075C246.769 35.3675 245.527 35.5975 244.209 35.5975C242.89 35.5975 241.771 35.3521 240.851 34.8615C239.931 34.3401 239.225 33.5735 238.735 32.5615C238.244 31.5495 237.999 30.2921 237.999 28.7895V5.55948H242.323V28.1915C242.323 29.4795 242.583 30.3995 243.105 30.9515C243.657 31.4728 244.362 31.7335 245.221 31.7335C245.895 31.7335 246.616 31.5955 247.383 31.3195ZM261.874 35.6435C259.697 35.6435 257.765 35.1528 256.078 34.1715C254.392 33.1595 253.073 31.7795 252.122 30.0315C251.172 28.2528 250.696 26.1981 250.696 23.8675C250.696 21.5061 251.156 19.4361 252.076 17.6575C253.027 15.8788 254.315 14.4835 255.94 13.4715C257.596 12.4595 259.513 11.9535 261.69 11.9535C263.837 11.9535 265.692 12.4135 267.256 13.3335C268.851 14.2535 270.078 15.5415 270.936 17.1975C271.826 18.8535 272.27 20.8008 272.27 23.0395V24.6495L252.996 24.6955L253.088 21.7975H267.946C267.946 19.9268 267.379 18.4241 266.244 17.2895C265.11 16.1548 263.592 15.5875 261.69 15.5875C260.249 15.5875 259.007 15.9095 257.964 16.5535C256.952 17.1668 256.17 18.0868 255.618 19.3135C255.097 20.5095 254.836 21.9508 254.836 23.6375C254.836 26.3361 255.45 28.4215 256.676 29.8935C257.903 31.3348 259.666 32.0555 261.966 32.0555C263.653 32.0555 265.033 31.7181 266.106 31.0435C267.18 30.3688 267.9 29.3875 268.268 28.0995H272.316C271.764 30.4915 270.584 32.3468 268.774 33.6655C266.965 34.9841 264.665 35.6435 261.874 35.6435Z" fill="black" fill-opacity="0.4"/>
<path fill-rule="evenodd" clip-rule="evenodd" d="M47.6 4.94657C47.6 2.24037 45.4062 0.0465698 42.7 0.0465698H4.9C2.1938 0.0465698 0 2.24038 0 4.94657V42.7466C0 45.4528 2.19381 47.6466 4.9 47.6466H42.7C45.4062 47.6466 47.6 45.4528 47.6 42.7466V4.94657ZM11.5499 17.1966C11.5499 15.4569 10.1396 14.0466 8.3999 14.0466C6.66021 14.0466 5.2499 15.4569 5.2499 17.1966V20.6966C5.2499 22.4363 6.6602 23.8466 8.3999 23.8466C10.1396 23.8466 11.5499 22.4363 11.5499 20.6966V17.1966ZM16.7999 16.1466C15.0602 16.1466 13.6499 17.5569 13.6499 19.2966C13.6499 21.0363 15.0602 22.4466 16.7999 22.4466H20.2999C22.0396 22.4466 23.4499 21.0363 23.4499 19.2966C23.4499 17.5569 22.0396 16.1466 20.2999 16.1466H16.7999ZM24.1499 19.2966C24.1499 17.5569 25.5602 16.1466 27.2999 16.1466H30.7999C32.5396 16.1466 33.9499 17.5569 33.9499 19.2966C33.9499 21.0363 32.5396 22.4466 30.7999 22.4466H27.2999C25.5602 22.4466 24.1499 21.0363 24.1499 19.2966ZM43.0499 17.1966C43.0499 15.4569 41.6396 14.0466 39.8999 14.0466C38.1602 14.0466 36.7499 15.4569 36.7499 17.1966V20.6966C36.7499 22.4363 38.1602 23.8466 39.8999 23.8466C41.6396 23.8466 43.0499 22.4363 43.0499 20.6966V17.1966ZM3.1499 29.0966C3.1499 27.3569 4.56021 25.9466 6.2999 25.9466H9.7999C11.5396 25.9466 12.9499 27.3569 12.9499 29.0966C12.9499 30.8363 11.5396 32.2466 9.7999 32.2466H6.29991C4.56021 32.2466 3.1499 30.8363 3.1499 29.0966ZM16.7999 25.9466C15.0602 25.9466 13.6499 27.3569 13.6499 29.0966C13.6499 30.8363 15.0602 32.2466 16.7999 32.2466H20.2999C22.0396 32.2466 23.4499 30.8363 23.4499 29.0966C23.4499 27.3569 22.0396 25.9466 20.2999 25.9466H16.7999ZM29.3999 23.8466C31.1396 23.8466 32.5499 25.2569 32.5499 26.9966V30.4966C32.5499 32.2363 31.1396 33.6466 29.3999 33.6466C27.6602 33.6466 26.2499 32.2363 26.2499 30.4966V26.9966C26.2499 25.2569 27.6602 23.8466 29.3999 23.8466ZM37.7999 25.9466C36.0602 25.9466 34.6499 27.3569 34.6499 29.0966C34.6499 30.8363 36.0602 32.2466 37.7999 32.2466H41.2999C43.0396 32.2466 44.4499 30.8363 44.4499 29.0966C44.4499 27.3569 43.0396 25.9466 41.2999 25.9466H37.7999Z" fill="#1963AD"/>
</svg>
